<?xml version="1.0" encoding="utf-8"?>
<!-- Generator: Adobe Illustrator 26.2.1, SVG Export Plug-In . SVG Version: 6.00 Build 0)  -->
<svg version="1.1" id="Layer_1" xmlns="http://www.w3.org/2000/svg" xmlns:xlink="http://www.w3.org/1999/xlink" x="0px" y="0px"
	 viewBox="0 0 1327 750" style="enable-background:new 0 0 1327 750;" xml:space="preserve">
<style type="text/css">
	.st0{fill:#E7F5FF;}
	.st1{opacity:0.4;fill:#BFDFF7;}
	.st2{fill:#FDFEFF;}
	.st3{fill:#FEFFFE;}
	.st4{fill:#FFFFFF;}
</style>
<g>
	<path class="st0" d="M481,75.6c-0.9-9.8-8.6-18-18.8-19c-3.1-0.3-6.2,0.1-9,1.1c0.1-0.6,0.2-1.3,0.3-1.9
		c0.8-8.4-5.3-15.9-13.7-16.7c-0.4,0-0.7-0.1-1.1-0.1c-1.9-8.4-8.9-15-17.8-16.1c-3-12.2-13.5-21.8-26.7-23.1
		c-11.6-1.1-22.3,4.4-28.4,13.4c-4.2-5-10.2-8.4-17.2-9.1c-13.7-1.3-26,8.3-28.1,21.7c-2.8-1.9-6.1-3.2-9.8-3.5
		c-11.7-1.1-22.1,7.4-23.2,19.1c-0.2,1.7-0.1,3.3,0.1,4.9c-5.1,1-9.3,5-10.4,10.2c-11.3,2.6-20.2,12.1-21.4,24.3
		c-1.5,15.2,9.6,28.8,24.9,30.3c10.4,1,19.9-3.8,25.5-11.8c4.5,3.3,10,5.5,16,6.1c8.7,0.9,16.9-1.8,23.3-6.8
		c6.7,10.6,18.1,18.1,31.6,19.4c16.9,1.7,32.4-6.8,40.5-20.5c2.9,2.2,6.5,3.6,10.4,4c7.5,0.7,14.4-2.6,18.7-8.2
		c3.1,2.6,7,4.4,11.4,4.8c3.7,0.4,7.3-0.3,10.5-1.7c2.1,2.3,5,3.9,8.3,4.3c7,0.7,13.3-4.4,14-11.5C491.6,82.8,487.2,77,481,75.6z"/>
	<path class="st1" d="M481,75.6c-0.3-3.1-1.2-6-2.7-8.5c-0.8,6.9-7,11.8-13.9,11.2c-3.4-0.3-6.3-1.9-8.3-4.3
		c-3.2,1.4-6.8,2.1-10.5,1.7c-4.4-0.4-8.3-2.2-11.4-4.8c-4.2,5.6-11.2,8.9-18.7,8.2c-3.9-0.4-7.5-1.8-10.4-4
		c-8.1,13.7-23.6,22.2-40.5,20.5c-13.5-1.3-24.9-8.8-31.6-19.4c-6.4,5-14.6,7.7-23.3,6.8c-6-0.6-11.5-2.8-16-6.1
		c-5.5,8-15.1,12.8-25.5,11.8c-4.6-0.4-8.8-2-12.4-4.3c0.3,13.8,10.9,25.5,25,26.9c10.4,1,19.9-3.8,25.5-11.8c4.5,3.3,10,5.5,16,6.1
		c8.7,0.9,16.9-1.8,23.3-6.8c6.7,10.6,18.1,18.1,31.6,19.4c16.9,1.7,32.4-6.8,40.5-20.5c2.9,2.2,6.5,3.6,10.4,4
		c7.5,0.7,14.4-2.6,18.7-8.2c3.1,2.6,7,4.4,11.4,4.8c3.7,0.4,7.3-0.3,10.5-1.7c2.1,2.3,5,3.9,8.3,4.3c7,0.7,13.3-4.4,14-11.5
		C491.6,82.8,487.2,77,481,75.6z"/>
	<path class="st2" d="M390.4,36c-9.2,1.9-16.3,8.2-19.8,16.2c3.8-6.2,10.1-10.9,17.9-12.5c15-3.2,29.7,6.4,32.8,21.4
		c1.2,5.8,0.5,11.6-1.6,16.6c3.6-5.8,5.1-13,3.5-20.3C420.1,42.4,405.4,32.8,390.4,36z"/>
	<path class="st2" d="M304.3,64.5c-3.2,5-3.6,11-1.6,16.1c-1.1-4.5-0.3-9.4,2.4-13.6c5.3-8.1,16.1-10.4,24.3-5.1
		c3.1,2.1,5.4,4.9,6.7,8.2c-1-4.2-3.6-8.1-7.5-10.7C320.5,54.1,309.6,56.4,304.3,64.5z"/>
	<path class="st3" d="M285.2,62.2c0,0,12.8-27.8,39.3-22.2c0,0,13-36.6,40-21c0,0,39.1-28.8,53.3,12.5c0,0,15.1-2.6,20.9,7.5
		c-1.9-8.4-8.9-15-17.8-16.1c-3-12.2-13.5-21.8-26.7-23.1c-11.6-1.1-22.3,4.4-28.4,13.4c-4.2-5-10.2-8.4-17.2-9.1
		c-13.7-1.3-26,8.3-28.1,21.7c-2.8-1.9-6.1-3.2-9.8-3.5c-11.7-1.1-22.1,7.4-23.2,19.1c-0.2,1.7-0.1,3.3,0.1,4.9
		c-5.1,1-9.3,5-10.4,10.2c-9.6,2.2-17.5,9.5-20.4,19.2l0,0C256.8,75.8,274.4,61.2,285.2,62.2z"/>
</g>
<g>
	<path class="st0" d="M557.1,469.1c-1.9-13.4-14.3-22.7-27.7-20.7c-3.4,0.5-6.5,1.6-9.3,3.3c-8.6-9.8-21.8-15.1-35.6-13.1
		c-4.3,0.6-8.3,1.9-11.9,3.7c-5-27.5-31-46.3-58.8-42.3c-23.7,3.4-41.4,22.3-44.4,44.9c-6-2.9-12.8-4.1-19.8-3.1
		c-18.8,2.7-31.8,20.1-29.1,38.9c2.7,18.8,20.1,31.8,38.9,29.1c2-0.3,3.9-0.7,5.7-1.3c6.2,13.6,20.7,22,36.2,19.8
		c7.1-1,13.3-4.1,18.2-8.6c6.7,12.2,20.4,19.5,35,17.4c12.3-1.8,22.1-9.8,26.7-20.4c4.7,1.1,9.7,1.3,14.7,0.6
		c13.3-1.9,24.2-10.2,29.8-21.4c3.3,1,7,1.3,10.6,0.8C549.7,494.9,559,482.5,557.1,469.1z"/>
	<path class="st4" d="M349.6,447.6c7-1,13.9,0.2,19.8,3.1c3-22.7,20.7-41.5,44.4-44.9c27.9-4,53.8,14.8,58.8,42.3
		c3.7-1.8,7.7-3.1,11.9-3.7c13.8-2,27,3.4,35.6,13.1c2.7-1.7,5.9-2.8,9.3-3.3c13.4-1.9,25.8,7.4,27.7,20.7c0,0.2,0.1,0.4,0.1,0.7
		c0.2-2.1,0.2-4.2-0.1-6.4c-1.9-13.4-14.3-22.7-27.7-20.7c-3.4,0.5-6.5,1.6-9.3,3.3c-8.6-9.8-21.8-15.1-35.6-13.1
		c-4.3,0.6-8.3,1.9-11.9,3.7c-5-27.5-31-46.3-58.8-42.3c-23.7,3.4-41.4,22.3-44.4,44.9c-6-2.9-12.8-4.1-19.8-3.1
		c-18.1,2.6-30.9,18.9-29.4,36.8C321.5,463.1,333.4,449.9,349.6,447.6z"/>
	<path class="st4" d="M472.8,470.1c-9.7-12.1-27.3-14.2-39.5-4.5c-6.1,4.9-9.7,11.8-10.5,19c1.5-5.7,4.8-10.9,9.7-14.8
		c12.1-9.7,29.8-7.6,39.5,4.5c4.8,6,6.7,13.4,5.9,20.5C480.1,486.4,478.5,477.3,472.8,470.1z"/>
	<path class="st1" d="M551.4,456.6L551.4,456.6c-3.6,27.3-29.6,22.2-29.6,22.2c-6,20.1-39.7,17.1-39.7,17.1
		c-23,24.4-59.3,1.5-59.3,1.5c-35.4,17-52-14.9-52-14.9c-27.3,13.1-44.4-18.7-46.5-23c-3.5,6.3-5,13.7-3.9,21.4
		c2.7,18.8,20.1,31.8,38.9,29.1c2-0.3,3.9-0.7,5.7-1.3c6.2,13.6,20.7,22,36.2,19.8c7.1-1,13.3-4.1,18.2-8.6
		c6.7,12.2,20.4,19.5,35,17.4c12.3-1.8,22.1-9.8,26.7-20.4c4.7,1.1,9.7,1.3,14.7,0.6c13.3-1.9,24.2-10.2,29.8-21.4
		c3.3,1,7,1.3,10.6,0.8c13.4-1.9,22.7-14.3,20.7-27.7C556.4,464.3,554.4,460.1,551.4,456.6z"/>
</g>
<g>
	<path class="st0" d="M803.7,115.3c-0.6-3.9-4.2-6.6-8.1-6.1c-1,0.1-1.9,0.5-2.7,1c-2.5-2.9-6.4-4.4-10.4-3.8
		c-1.2,0.2-2.4,0.6-3.5,1.1c-1.5-8.1-9.1-13.6-17.2-12.4c-7,1-12.1,6.5-13,13.2c-1.7-0.8-3.8-1.2-5.8-0.9c-5.5,0.8-9.3,5.9-8.5,11.4
		c0.8,5.5,5.9,9.3,11.4,8.5c0.6-0.1,1.1-0.2,1.7-0.4c1.8,4,6.1,6.5,10.6,5.8c2.1-0.3,3.9-1.2,5.3-2.5c2,3.6,6,5.7,10.3,5.1
		c3.6-0.5,6.5-2.9,7.8-6c1.4,0.3,2.8,0.4,4.3,0.2c3.9-0.6,7.1-3,8.7-6.3c1,0.3,2,0.4,3.1,0.2C801.6,122.9,804.3,119.2,803.7,115.3z"
		/>
	<path class="st4" d="M742.9,109c2.1-0.3,4.1,0.1,5.8,0.9c0.9-6.6,6.1-12.2,13-13.2c8.2-1.2,15.8,4.3,17.2,12.4
		c1.1-0.5,2.2-0.9,3.5-1.1c4.1-0.6,7.9,1,10.4,3.8c0.8-0.5,1.7-0.8,2.7-1c3.9-0.6,7.6,2.2,8.1,6.1c0,0.1,0,0.1,0,0.2
		c0.1-0.6,0.1-1.2,0-1.9c-0.6-3.9-4.2-6.6-8.1-6.1c-1,0.1-1.9,0.5-2.7,1c-2.5-2.9-6.4-4.4-10.4-3.8c-1.2,0.2-2.4,0.6-3.5,1.1
		c-1.5-8.1-9.1-13.6-17.2-12.4c-7,1-12.1,6.5-13,13.2c-1.7-0.8-3.8-1.2-5.8-0.9c-5.3,0.8-9,5.5-8.6,10.8
		C734.7,113.5,738.2,109.7,742.9,109z"/>
	<path class="st4" d="M779,115.6c-2.8-3.6-8-4.2-11.6-1.3c-1.8,1.4-2.8,3.5-3.1,5.6c0.4-1.7,1.4-3.2,2.8-4.3
		c3.6-2.8,8.7-2.2,11.6,1.3c1.4,1.8,2,3.9,1.7,6C781.2,120.4,780.7,117.7,779,115.6z"/>
	<path class="st1" d="M802.1,111.6L802.1,111.6c-1.1,8-8.7,6.5-8.7,6.5c-1.8,5.9-11.6,5-11.6,5c-6.7,7.2-17.4,0.4-17.4,0.4
		c-10.4,5-15.2-4.4-15.2-4.4c-8,3.8-13-5.5-13.6-6.7c-1,1.8-1.5,4-1.1,6.3c0.8,5.5,5.9,9.3,11.4,8.5c0.6-0.1,1.1-0.2,1.7-0.4
		c1.8,4,6.1,6.5,10.6,5.8c2.1-0.3,3.9-1.2,5.3-2.5c2,3.6,6,5.7,10.3,5.1c3.6-0.5,6.5-2.9,7.8-6c1.4,0.3,2.8,0.4,4.3,0.2
		c3.9-0.6,7.1-3,8.7-6.3c1,0.3,2,0.4,3.1,0.2c3.9-0.6,6.6-4.2,6.1-8.1C803.5,113.9,802.9,112.6,802.1,111.6z"/>
</g>
<g>
	<path class="st0" d="M1217.4,107.4c-1.9-13.4-14.3-22.7-27.7-20.7c-3.4,0.5-6.5,1.6-9.3,3.3c-8.6-9.8-21.8-15.1-35.6-13.1
		c-4.3,0.6-8.3,1.9-11.9,3.7c-5-27.5-31-46.3-58.8-42.3c-23.7,3.4-41.4,22.3-44.4,44.9c-6-2.9-12.8-4.1-19.8-3.1
		c-18.8,2.7-31.8,20.1-29.1,38.9c2.7,18.8,20.1,31.8,38.9,29.1c2-0.3,3.9-0.7,5.7-1.3c6.2,13.6,20.7,22,36.2,19.8
		c7.1-1,13.3-4.1,18.2-8.6c6.7,12.2,20.4,19.5,35,17.4c12.3-1.8,22.1-9.8,26.7-20.4c4.7,1.1,9.7,1.3,14.7,0.6
		c13.3-1.9,24.2-10.2,29.8-21.4c3.3,1,7,1.3,10.6,0.8C1210,133.2,1219.3,120.8,1217.4,107.4z"/>
	<path class="st4" d="M1009.8,85.8c7-1,13.9,0.2,19.8,3.1c3-22.7,20.7-41.5,44.4-44.9c27.9-4,53.8,14.8,58.8,42.3
		c3.7-1.8,7.7-3.1,11.9-3.7c13.8-2,27,3.4,35.6,13.1c2.7-1.7,5.9-2.8,9.3-3.3c13.4-1.9,25.8,7.4,27.7,20.7c0,0.2,0.1,0.4,0.1,0.7
		c0.2-2.1,0.2-4.2-0.1-6.4c-1.9-13.4-14.3-22.7-27.7-20.7c-3.4,0.5-6.5,1.6-9.3,3.3c-8.6-9.8-21.8-15.1-35.6-13.1
		c-4.3,0.6-8.3,1.9-11.9,3.7c-5-27.5-31-46.3-58.8-42.3c-23.7,3.4-41.4,22.3-44.4,44.9c-6-2.9-12.8-4.1-19.8-3.1
		C991.7,82.7,979,99,980.5,117C981.8,101.4,993.7,88.2,1009.8,85.8z"/>
	<path class="st4" d="M1133.1,108.3c-9.7-12.1-27.3-14.2-39.5-4.5c-6.1,4.9-9.7,11.8-10.5,19c1.5-5.7,4.8-10.9,9.7-14.8
		c12.1-9.7,29.8-7.6,39.5,4.5c4.8,6,6.7,13.4,5.9,20.5C1140.4,124.7,1138.8,115.5,1133.1,108.3z"/>
	<path class="st1" d="M1211.7,94.9L1211.7,94.9c-3.6,27.3-29.6,22.2-29.6,22.2c-6,20.1-39.7,17.1-39.7,17.1
		c-23,24.4-59.3,1.5-59.3,1.5c-35.4,17-52-14.9-52-14.9c-27.3,13.1-44.4-18.7-46.5-23c-3.5,6.3-5,13.7-3.9,21.4
		c2.7,18.8,20.1,31.8,38.9,29.1c2-0.3,3.9-0.7,5.7-1.3c6.2,13.6,20.7,22,36.2,19.8c7.1-1,13.3-4.1,18.2-8.6
		c6.7,12.2,20.4,19.5,35,17.4c12.3-1.8,22.1-9.8,26.7-20.4c4.7,1.1,9.7,1.3,14.7,0.6c13.3-1.9,24.2-10.2,29.8-21.4
		c3.3,1,7,1.3,10.6,0.8c13.4-1.9,22.7-14.3,20.7-27.7C1216.7,102.6,1214.6,98.3,1211.7,94.9z"/>
</g>
<g>
	<path class="st0" d="M796.2,686.4c3.9,23.3,26,39,49.3,35.1c5.8-1,11.2-3.1,15.9-6.1c10.6,21.2,34.2,33.9,58.8,29.8
		c14.5-2.4,26.7-10.3,35-21.1c7.2,3,15.2,4,23.4,2.6c13.2-2.2,24-10.3,30.1-21.1c4.2,1.5,8.8,1.9,13.4,1.1
		c6.7-1.1,12.4-4.6,16.4-9.4c4.3,3.1,9.7,4.5,15.3,3.6c11.1-1.9,18.6-12.4,16.7-23.5s-12.4-18.6-23.5-16.7c-2.8,0.5-5.4,1.5-7.6,2.9
		c-1.7-2.3-3.8-4.3-6.1-6c1.4-4.1,1.8-8.6,1.1-13.2c-2.5-14.8-16.5-24.8-31.3-22.3c-3.9,0.7-7.4,2.1-10.5,4.1
		c-8.8-14.8-26-23.4-43.9-20.4c-8,1.3-15.1,4.8-20.8,9.7c-8.1-16.7-26.4-26.8-45.6-23.6c-21.9,3.7-37.1,23.4-35.6,45.1
		c-4.9-1-10.1-1.1-15.4-0.2C808,641,792.2,663.1,796.2,686.4z"/>
	<path class="st4" d="M944.9,665.9c-12.8-16.1-36.1-18.7-52.2-6c-8.1,6.4-12.8,15.6-13.8,25.2c2-7.5,6.3-14.4,12.8-19.6
		c16.1-12.8,39.5-10.1,52.2,6c6.3,8,8.9,17.7,7.9,27.1C954.6,687.6,952.5,675.5,944.9,665.9z"/>
	<path class="st0" d="M951.3,717.2c-53.9,31.9-84.9-7.4-84.9-7.4c-37.1,24.1-66.3-17.8-70.4-24.1c0,0.2,0.1,0.5,0.1,0.7
		c3.9,23.3,26,39,49.3,35.1c5.8-1,11.2-3.1,15.9-6.1c10.6,21.2,34.2,33.9,58.8,29.8c14.5-2.4,26.7-10.3,35-21.1
		c7.2,3,15.2,4,23.4,2.6c12.9-2.2,23.4-9.8,29.6-20.2c-3.5-0.7-5.8-1.5-5.8-1.5C981.9,730.2,951.3,717.2,951.3,717.2z"/>
	<path class="st0" d="M1031.8,703.1c1.4-0.8,2.7-1.8,3.9-2.9c-0.9-0.2-1.3-0.3-1.3-0.3C1033.6,701.2,1032.8,702.2,1031.8,703.1z"/>
	<path class="st1" d="M1069.4,673.6c-6.1,23.3-35.1,15-35.1,15c-7.6,13.5-32,5.1-32,5.1c-20.4,25.2-51,12.2-51,12.2
		c-53.9,31.9-84.9-7.4-84.9-7.4c-37.7,24.5-67.3-19.2-70.6-24.4c-0.5,4-0.4,8.1,0.3,12.3c3.9,23.3,26,39,49.3,35.1
		c5.8-1,11.2-3.1,15.9-6.1c10.6,21.2,34.2,33.9,58.8,29.8c14.5-2.4,26.7-10.3,35-21.1c7.2,3,15.2,4,23.4,2.6
		c13.2-2.2,24-10.3,30.1-21.1c4.2,1.5,8.8,1.9,13.4,1.1c6.7-1.1,12.4-4.6,16.4-9.4c4.3,3.1,9.7,4.5,15.3,3.6
		c11.1-1.9,18.6-12.4,16.7-23.5C1070.3,676.2,1069.9,674.9,1069.4,673.6z"/>
	<path class="st4" d="M831.3,648.4c5.2-0.9,10.4-0.8,15.4,0.2c-1.5-21.7,13.7-41.5,35.6-45.1c19.2-3.2,37.5,6.9,45.6,23.6
		c5.7-4.9,12.8-8.4,20.8-9.7c17.9-3,35.1,5.6,43.9,20.4c3.1-2,6.6-3.5,10.5-4.1c14.4-2.4,28.1,7,31.1,21.2c0.7-3.2,0.8-6.7,0.2-10.2
		c-2.5-14.8-16.5-24.8-31.3-22.3c-3.9,0.7-7.4,2.1-10.5,4.1c-8.8-14.8-26-23.4-43.9-20.4c-8,1.3-15.1,4.8-20.8,9.7
		c-8.1-16.7-26.4-26.8-45.6-23.6c-21.9,3.7-37.1,23.4-35.6,45.1c-4.9-1-10.1-1.1-15.4-0.2c-22.8,3.8-38.4,25.1-35.3,47.8
		C798.4,666.8,812.3,651.6,831.3,648.4z"/>
</g>
<g>
	<path class="st0" d="M61.1,531.7c1.4,8.1,9.1,13.6,17.2,12.3c2-0.3,3.9-1.1,5.6-2.1c3.7,7.4,11.9,11.9,20.5,10.4
		c5.1-0.8,9.3-3.6,12.2-7.4c2.5,1,5.3,1.4,8.2,0.9c4.6-0.8,8.4-3.6,10.5-7.4c1.5,0.5,3.1,0.7,4.7,0.4c2.3-0.4,4.3-1.6,5.7-3.3
		c1.5,1.1,3.4,1.6,5.3,1.3c3.9-0.7,6.5-4.3,5.8-8.2c-0.7-3.9-4.3-6.5-8.2-5.8c-1,0.2-1.9,0.5-2.7,1c-0.6-0.8-1.3-1.5-2.1-2.1
		c0.5-1.4,0.6-3,0.4-4.6c-0.9-5.2-5.8-8.7-10.9-7.8c-1.4,0.2-2.6,0.7-3.7,1.4c-3.1-5.2-9.1-8.2-15.3-7.1c-2.8,0.5-5.3,1.7-7.3,3.4
		c-2.8-5.8-9.2-9.4-15.9-8.2c-7.7,1.3-13,8.2-12.4,15.8c-1.7-0.3-3.5-0.4-5.4-0.1C65.2,515.9,59.7,523.6,61.1,531.7z"/>
	<path class="st4" d="M113,524.6c-4.5-5.6-12.6-6.5-18.2-2.1c-2.8,2.3-4.5,5.4-4.8,8.8c0.7-2.6,2.2-5,4.5-6.8
		c5.6-4.5,13.8-3.5,18.2,2.1c2.2,2.8,3.1,6.2,2.7,9.5C116.4,532.1,115.7,527.9,113,524.6z"/>
	<path class="st0" d="M115.2,542.5c-18.8,11.1-29.6-2.6-29.6-2.6c-13,8.4-23.2-6.2-24.6-8.4c0,0.1,0,0.2,0,0.2
		c1.4,8.1,9.1,13.6,17.2,12.3c2-0.3,3.9-1.1,5.6-2.1c3.7,7.4,11.9,11.9,20.5,10.4c5.1-0.8,9.3-3.6,12.2-7.4c2.5,1,5.3,1.4,8.2,0.9
		c4.5-0.8,8.2-3.4,10.3-7.1c-1.2-0.3-2-0.5-2-0.5C125.9,547,115.2,542.5,115.2,542.5z"/>
	<path class="st0" d="M143.4,537.6c0.5-0.3,0.9-0.6,1.3-1c-0.3-0.1-0.5-0.1-0.5-0.1C144,536.9,143.7,537.3,143.4,537.6z"/>
	<path class="st1" d="M156.5,527.3c-2.1,8.1-12.3,5.2-12.3,5.2c-2.7,4.7-11.2,1.8-11.2,1.8c-7.1,8.8-17.8,4.3-17.8,4.3
		c-18.8,11.1-29.6-2.6-29.6-2.6c-13.2,8.5-23.5-6.7-24.7-8.5c-0.2,1.4-0.1,2.8,0.1,4.3c1.4,8.1,9.1,13.6,17.2,12.3
		c2-0.3,3.9-1.1,5.6-2.1c3.7,7.4,11.9,11.9,20.5,10.4c5.1-0.8,9.3-3.6,12.2-7.4c2.5,1,5.3,1.4,8.2,0.9c4.6-0.8,8.4-3.6,10.5-7.4
		c1.5,0.5,3.1,0.7,4.7,0.4c2.3-0.4,4.3-1.6,5.7-3.3c1.5,1.1,3.4,1.6,5.3,1.3c3.9-0.7,6.5-4.3,5.8-8.2
		C156.8,528.1,156.7,527.7,156.5,527.3z"/>
	<path class="st4" d="M73.3,518.4c1.8-0.3,3.6-0.3,5.4,0.1c-0.5-7.6,4.8-14.5,12.4-15.8c6.7-1.1,13.1,2.4,15.9,8.2
		c2-1.7,4.5-2.9,7.3-3.4c6.3-1.1,12.3,2,15.3,7.1c1.1-0.7,2.3-1.2,3.7-1.4c5-0.8,9.8,2.4,10.9,7.4c0.2-1.1,0.3-2.3,0.1-3.5
		c-0.9-5.2-5.8-8.7-10.9-7.8c-1.4,0.2-2.6,0.7-3.7,1.4c-3.1-5.2-9.1-8.2-15.3-7.1c-2.8,0.5-5.3,1.7-7.3,3.4
		c-2.8-5.8-9.2-9.4-15.9-8.2c-7.7,1.3-13,8.2-12.4,15.8c-1.7-0.3-3.5-0.4-5.4-0.1c-8,1.3-13.4,8.7-12.3,16.7
		C61.8,524.9,66.7,519.6,73.3,518.4z"/>
</g>
<g>
	<path class="st0" d="M1071,327.2c1.4,8.1,9.1,13.6,17.2,12.3c2-0.3,3.9-1.1,5.6-2.1c3.7,7.4,11.9,11.9,20.5,10.4
		c5.1-0.8,9.3-3.6,12.2-7.4c2.5,1,5.3,1.4,8.2,0.9c4.6-0.8,8.4-3.6,10.5-7.4c1.5,0.5,3.1,0.7,4.7,0.4c2.3-0.4,4.3-1.6,5.7-3.3
		c1.5,1.1,3.4,1.6,5.3,1.3c3.9-0.7,6.5-4.3,5.8-8.2c-0.7-3.9-4.3-6.5-8.2-5.8c-1,0.2-1.9,0.5-2.7,1c-0.6-0.8-1.3-1.5-2.1-2.1
		c0.5-1.4,0.6-3,0.4-4.6c-0.9-5.2-5.8-8.7-10.9-7.8c-1.4,0.2-2.6,0.7-3.7,1.4c-3.1-5.2-9.1-8.2-15.3-7.1c-2.8,0.5-5.3,1.7-7.3,3.4
		c-2.8-5.8-9.2-9.4-15.9-8.2c-7.7,1.3-13,8.2-12.4,15.8c-1.7-0.3-3.5-0.4-5.4-0.1C1075.1,311.4,1069.6,319.1,1071,327.2z"/>
	<path class="st4" d="M1122.9,320.1c-4.5-5.6-12.6-6.5-18.2-2.1c-2.8,2.3-4.5,5.4-4.8,8.8c0.7-2.6,2.2-5,4.5-6.9
		c5.6-4.5,13.8-3.5,18.2,2.1c2.2,2.8,3.1,6.2,2.7,9.5C1126.3,327.6,1125.6,323.4,1122.9,320.1z"/>
	<path class="st0" d="M1125.2,338c-18.8,11.1-29.6-2.6-29.6-2.6c-13,8.4-23.2-6.2-24.6-8.4c0,0.1,0,0.2,0,0.2
		c1.4,8.1,9.1,13.6,17.2,12.3c2-0.3,3.9-1.1,5.6-2.1c3.7,7.4,11.9,11.9,20.5,10.4c5.1-0.8,9.3-3.6,12.2-7.4c2.5,1,5.3,1.4,8.2,0.9
		c4.5-0.8,8.2-3.4,10.3-7.1c-1.2-0.3-2-0.5-2-0.5C1135.9,342.5,1125.2,338,1125.2,338z"/>
	<path class="st0" d="M1153.3,333.1c0.5-0.3,0.9-0.6,1.3-1c-0.3-0.1-0.5-0.1-0.5-0.1C1153.9,332.4,1153.6,332.8,1153.3,333.1z"/>
	<path class="st1" d="M1166.4,322.8c-2.1,8.1-12.3,5.2-12.3,5.2c-2.7,4.7-11.2,1.8-11.2,1.8c-7.1,8.8-17.8,4.3-17.8,4.3
		c-18.8,11.1-29.6-2.6-29.6-2.6c-13.2,8.5-23.5-6.7-24.7-8.5c-0.2,1.4-0.1,2.8,0.1,4.3c1.4,8.1,9.1,13.6,17.2,12.3
		c2-0.3,3.9-1.1,5.6-2.1c3.7,7.4,11.9,11.9,20.5,10.4c5.1-0.8,9.3-3.6,12.2-7.4c2.5,1,5.3,1.4,8.2,0.9c4.6-0.8,8.4-3.6,10.5-7.4
		c1.5,0.5,3.1,0.7,4.7,0.4c2.3-0.4,4.3-1.6,5.7-3.3c1.5,1.1,3.4,1.6,5.3,1.3c3.9-0.7,6.5-4.3,5.8-8.2
		C1166.7,323.7,1166.6,323.2,1166.4,322.8z"/>
	<path class="st4" d="M1083.2,314c1.8-0.3,3.6-0.3,5.4,0.1c-0.5-7.6,4.8-14.5,12.4-15.8c6.7-1.1,13.1,2.4,15.9,8.2
		c2-1.7,4.5-2.9,7.3-3.4c6.3-1.1,12.3,2,15.3,7.1c1.1-0.7,2.3-1.2,3.7-1.4c5-0.8,9.8,2.4,10.9,7.4c0.2-1.1,0.3-2.3,0.1-3.5
		c-0.9-5.2-5.8-8.7-10.9-7.8c-1.4,0.2-2.6,0.7-3.7,1.4c-3.1-5.2-9.1-8.2-15.3-7.1c-2.8,0.5-5.3,1.7-7.3,3.4
		c-2.8-5.8-9.2-9.4-15.9-8.2c-7.7,1.3-13,8.2-12.4,15.8c-1.7-0.3-3.5-0.4-5.4-0.1c-8,1.3-13.4,8.7-12.3,16.7
		C1071.8,320.4,1076.6,315.1,1083.2,314z"/>
</g>
</svg>
